# Blender 3.4.1
# www.blender.org
o Cone
v 1.000000 0.000000 -0.500000
v 0.992420 -0.122888 -0.500000
v 0.969797 -0.243914 -0.500000
v 0.932472 -0.361242 -0.500000
v 0.881012 -0.473094 -0.500000
v 0.816197 -0.577774 -0.500000
v 0.739009 -0.673696 -0.500000
v 0.650618 -0.759405 -0.500000
v 0.552365 -0.833602 -0.500000
v 0.445738 -0.895163 -0.500000
v 0.332355 -0.943154 -0.500000
v 0.213933 -0.976848 -0.500000
v 0.092268 -0.995734 -0.500000
v -0.030795 -0.999526 -0.500000
v -0.153392 -0.988165 -0.500000
v -0.273663 -0.961826 -0.500000
v -0.389786 -0.920906 -0.500000
v -0.500000 -0.866025 -0.500000
v -0.602635 -0.798017 -0.500000
v -0.696134 -0.717912 -0.500000
v -0.779081 -0.626924 -0.500000
v -0.850217 -0.526432 -0.500000
v -0.908465 -0.417960 -0.500000
v -0.952942 -0.303153 -0.500000
v -0.982973 -0.183750 -0.500000
v -0.998103 -0.061561 -0.500000
v -0.998103 0.061561 -0.500000
v -0.982973 0.183750 -0.500000
v -0.952942 0.303153 -0.500000
v -0.908465 0.417960 -0.500000
v -0.850217 0.526432 -0.500000
v -0.779081 0.626924 -0.500000
v -0.696134 0.717912 -0.500000
v -0.602635 0.798017 -0.500000
v -0.500000 0.866025 -0.500000
v -0.389786 0.920906 -0.500000
v -0.273663 0.961826 -0.500000
v -0.153392 0.988165 -0.500000
v -0.030795 0.999526 -0.500000
v 0.092268 0.995734 -0.500000
v 0.213933 0.976848 -0.500000
v 0.332355 0.943154 -0.500000
v 0.445738 0.895163 -0.500000
v 0.552365 0.833602 -0.500000
v 0.650618 0.759405 -0.500000
v 0.739009 0.673696 -0.500000
v 0.816197 0.577774 -0.500000
v 0.881012 0.473094 -0.500000
v 0.932472 0.361242 -0.500000
v 0.969797 0.243914 -0.500000
v 0.992420 0.122888 -0.500000
v 0.000000 0.000000 0.500000
vn 0.7064 -0.0436 0.7064
vn 0.6957 -0.1301 0.7064
vn 0.6745 -0.2146 0.7064
vn 0.6430 -0.2958 0.7064
vn 0.6018 -0.3726 0.7064
vn 0.5514 -0.4437 0.7064
vn 0.4927 -0.5081 0.7064
vn 0.4265 -0.5648 0.7064
vn 0.3539 -0.6130 0.7064
vn 0.2759 -0.6518 0.7064
vn 0.1937 -0.6808 0.7064
vn 0.1086 -0.6994 0.7064
vn 0.0218 -0.7074 0.7064
vn -0.0653 -0.7048 0.7064
vn -0.1514 -0.6914 0.7064
vn -0.2352 -0.6675 0.7064
vn -0.3155 -0.6336 0.7064
vn -0.3910 -0.5900 0.7064
vn -0.4605 -0.5375 0.7064
vn -0.5231 -0.4768 0.7064
vn -0.5777 -0.4089 0.7064
vn -0.6236 -0.3348 0.7064
vn -0.6600 -0.2557 0.7064
vn -0.6864 -0.1726 0.7064
vn -0.7024 -0.0870 0.7064
vn -0.7078 -0.0000 0.7064
vn -0.7024 0.0870 0.7064
vn -0.6864 0.1726 0.7064
vn -0.6600 0.2557 0.7064
vn -0.6236 0.3348 0.7064
vn -0.5777 0.4089 0.7064
vn -0.5231 0.4768 0.7064
vn -0.4605 0.5375 0.7064
vn -0.3910 0.5900 0.7064
vn -0.3155 0.6336 0.7064
vn -0.2352 0.6675 0.7064
vn -0.1514 0.6914 0.7064
vn -0.0653 0.7048 0.7064
vn 0.0218 0.7074 0.7064
vn 0.1086 0.6994 0.7064
vn 0.1937 0.6808 0.7064
vn 0.2759 0.6518 0.7064
vn 0.3539 0.6130 0.7064
vn 0.4265 0.5648 0.7064
vn 0.4927 0.5081 0.7064
vn 0.5514 0.4437 0.7064
vn 0.6018 0.3726 0.7064
vn 0.6430 0.2958 0.7064
vn 0.6745 0.2146 0.7064
vn -0.0000 -0.0000 -1.0000
vn 0.6957 0.1301 0.7064
vn 0.7064 0.0436 0.7064
vt 0.750000 0.490000
vt 0.250000 0.490000
vt 0.279493 0.488181
vt 0.779493 0.488181
vt 0.308539 0.482751
vt 0.808539 0.482751
vt 0.336698 0.473793
vt 0.836698 0.473793
vt 0.363542 0.461443
vt 0.863542 0.461443
vt 0.388666 0.445887
vt 0.888666 0.445887
vt 0.411687 0.427362
vt 0.911687 0.427362
vt 0.432257 0.406148
vt 0.932257 0.406148
vt 0.450065 0.382568
vt 0.950065 0.382568
vt 0.464839 0.356977
vt 0.964839 0.356977
vt 0.476357 0.329765
vt 0.976357 0.329765
vt 0.484444 0.301344
vt 0.984444 0.301344
vt 0.488976 0.272144
vt 0.988976 0.272144
vt 0.489886 0.242609
vt 0.989886 0.242609
vt 0.487160 0.213186
vt 0.987160 0.213186
vt 0.480838 0.184321
vt 0.980838 0.184321
vt 0.471017 0.156451
vt 0.971017 0.156451
vt 0.457846 0.130000
vt 0.957846 0.130000
vt 0.441524 0.105368
vt 0.941524 0.105368
vt 0.422299 0.082928
vt 0.922299 0.082928
vt 0.400462 0.063021
vt 0.900462 0.063021
vt 0.376344 0.045948
vt 0.876344 0.045948
vt 0.350311 0.031968
vt 0.850311 0.031968
vt 0.322757 0.021294
vt 0.822757 0.021294
vt 0.294100 0.014086
vt 0.794100 0.014086
vt 0.264775 0.010455
vt 0.764775 0.010455
vt 0.235225 0.010455
vt 0.735225 0.010455
vt 0.205900 0.014086
vt 0.705900 0.014086
vt 0.177243 0.021294
vt 0.677243 0.021294
vt 0.149690 0.031968
vt 0.649689 0.031968
vt 0.123656 0.045948
vt 0.623656 0.045948
vt 0.099538 0.063021
vt 0.599538 0.063021
vt 0.077701 0.082928
vt 0.577701 0.082928
vt 0.058476 0.105368
vt 0.558476 0.105368
vt 0.042154 0.130000
vt 0.542154 0.130000
vt 0.028983 0.156451
vt 0.528983 0.156451
vt 0.019162 0.184321
vt 0.519162 0.184321
vt 0.012840 0.213186
vt 0.512840 0.213186
vt 0.010114 0.242609
vt 0.510114 0.242609
vt 0.011024 0.272144
vt 0.511024 0.272144
vt 0.015556 0.301344
vt 0.515556 0.301344
vt 0.023643 0.329765
vt 0.523643 0.329765
vt 0.035161 0.356977
vt 0.535161 0.356977
vt 0.049935 0.382568
vt 0.549935 0.382568
vt 0.067743 0.406148
vt 0.567743 0.406148
vt 0.088313 0.427362
vt 0.588313 0.427362
vt 0.111334 0.445887
vt 0.611334 0.445887
vt 0.136458 0.461443
vt 0.636458 0.461443
vt 0.163302 0.473793
vt 0.663302 0.473793
vt 0.691461 0.482751
vt 0.191461 0.482751
vt 0.720507 0.488181
vt 0.220507 0.488181
vt 0.250000 0.250000
s 0
f 1/2/1 52/103/1 2/3/1
f 2/3/2 52/103/2 3/5/2
f 3/5/3 52/103/3 4/7/3
f 4/7/4 52/103/4 5/9/4
f 5/9/5 52/103/5 6/11/5
f 6/11/6 52/103/6 7/13/6
f 7/13/7 52/103/7 8/15/7
f 8/15/8 52/103/8 9/17/8
f 9/17/9 52/103/9 10/19/9
f 10/19/10 52/103/10 11/21/10
f 11/21/11 52/103/11 12/23/11
f 12/23/12 52/103/12 13/25/12
f 13/25/13 52/103/13 14/27/13
f 14/27/14 52/103/14 15/29/14
f 15/29/15 52/103/15 16/31/15
f 16/31/16 52/103/16 17/33/16
f 17/33/17 52/103/17 18/35/17
f 18/35/18 52/103/18 19/37/18
f 19/37/19 52/103/19 20/39/19
f 20/39/20 52/103/20 21/41/20
f 21/41/21 52/103/21 22/43/21
f 22/43/22 52/103/22 23/45/22
f 23/45/23 52/103/23 24/47/23
f 24/47/24 52/103/24 25/49/24
f 25/49/25 52/103/25 26/51/25
f 26/51/26 52/103/26 27/53/26
f 27/53/27 52/103/27 28/55/27
f 28/55/28 52/103/28 29/57/28
f 29/57/29 52/103/29 30/59/29
f 30/59/30 52/103/30 31/61/30
f 31/61/31 52/103/31 32/63/31
f 32/63/32 52/103/32 33/65/32
f 33/65/33 52/103/33 34/67/33
f 34/67/34 52/103/34 35/69/34
f 35/69/35 52/103/35 36/71/35
f 36/71/36 52/103/36 37/73/36
f 37/73/37 52/103/37 38/75/37
f 38/75/38 52/103/38 39/77/38
f 39/77/39 52/103/39 40/79/39
f 40/79/40 52/103/40 41/81/40
f 41/81/41 52/103/41 42/83/41
f 42/83/42 52/103/42 43/85/42
f 43/85/43 52/103/43 44/87/43
f 44/87/44 52/103/44 45/89/44
f 45/89/45 52/103/45 46/91/45
f 46/91/46 52/103/46 47/93/46
f 47/93/47 52/103/47 48/95/47
f 48/95/48 52/103/48 49/97/48
f 49/97/49 52/103/49 50/100/49
f 1/1/50 2/4/50 3/6/50 4/8/50 5/10/50 6/12/50 7/14/50 8/16/50 9/18/50 10/20/50 11/22/50 12/24/50 13/26/50 14/28/50 15/30/50 16/32/50 17/34/50 18/36/50 19/38/50 20/40/50 21/42/50 22/44/50 23/46/50 24/48/50 25/50/50 26/52/50 27/54/50 28/56/50 29/58/50 30/60/50 31/62/50 32/64/50 33/66/50 34/68/50 35/70/50 36/72/50 37/74/50 38/76/50 39/78/50 40/80/50 41/82/50 42/84/50 43/86/50 44/88/50 45/90/50 46/92/50 47/94/50 48/96/50 49/98/50 50/99/50 51/101/50
f 50/100/51 52/103/51 51/102/51
f 51/102/52 52/103/52 1/2/52
